<svg width="46" height="46" viewBox="0 0 46 46" fill="none" xmlns="http://www.w3.org/2000/svg">
<rect width="46" height="46" rx="23" fill="url(#paint0_radial_1_609)"/>
<path d="M26.9207 14.0478H26.79V14.1785V16.1388V16.2695H26.9207H33.0606L24.9603 24.3699L20.8448 20.2544L20.8448 20.2543C20.6364 20.0461 20.3539 19.9291 20.0594 19.9291C19.7648 19.9291 19.4823 20.0461 19.274 20.2543L19.274 20.2544L9.18493 30.3434L9.09252 30.4358L9.18493 30.5282L10.5709 31.9142L10.6633 32.0066L10.7557 31.9142L20.0594 22.6106L24.1749 26.7261L24.1749 26.7261C24.3832 26.9344 24.6657 27.0513 24.9603 27.0513C25.2549 27.0513 25.5374 26.9344 25.7457 26.7261L25.7457 26.7261L34.6315 17.8403V23.9803V24.111H34.7621H36.7225H36.8532V23.9803V14.1785V14.0478H36.7225H26.9207Z" fill="white" stroke="white" stroke-width="0.261383"/>
<defs>
<radialGradient id="paint0_radial_1_609" cx="0" cy="0" r="1" gradientUnits="userSpaceOnUse" gradientTransform="translate(23 23) rotate(90) scale(30.5)">
<stop stop-color="#39AAFB"/>
</radialGradient>
</defs>
</svg>
